<?xml version="1.0" encoding="UTF-8"?>
<svg width="23px" height="22px" viewBox="0 0 23 22" version="1.1" xmlns="http://www.w3.org/2000/svg" xmlns:xlink="http://www.w3.org/1999/xlink">
    <!-- Generator: Sketch 46.1 (44463) - http://www.bohemiancoding.com/sketch -->
    <title>Page 1</title>
    <desc>Created with Sketch.</desc>
    <defs></defs>
    <g id="Page-1" stroke="none" stroke-width="1" fill="none" fill-rule="evenodd">
        <g id="Desktop-HD-Copy-2" transform="translate(-1292.000000, -71.000000)" fill="#FFFFFF">
            <g id="Page-1" style="mix-blend-mode: hard-light;" transform="translate(1292.000000, 71.000000)">
                <path d="M0,21.1599998 L22.0416665,21.1599998 L22.0416665,0 L0,0 L0,21.1599998 Z M1.17520413,20.0045546 L20.8664624,20.0045546 L20.8664624,1.1554452 L1.17520413,1.1554452 L1.17520413,20.0045546 Z" id="Fill-1"></path>
                <path d="M14.0266196,13.8471282 C12.6986586,13.8471282 11.6221199,12.8254039 11.6221199,11.5650591 L11.6221199,11.5650591 L11.6221199,8.71320588 L11.6219761,8.71320588 C11.6219761,7.45286106 12.6985149,6.4311368 14.0264759,6.4311368 C15.3544369,6.4311368 16.4309756,7.45286106 16.4309756,8.71320588 C16.4309756,9.9735507 15.3544369,10.995275 14.0264759,10.995275 C13.3080648,10.995275 12.6637368,10.6958911 12.223119,10.2218552 L12.223119,11.6784022 C12.753628,11.9696025 13.3695013,12.1364118 14.0264759,12.1364118 C16.0185251,12.1364118 17.6333332,10.6037572 17.6333332,8.71320588 C17.6333332,6.82265455 16.0185251,5.28999996 14.0264759,5.28999996 C12.0344984,5.28999996 10.4196185,6.82265455 10.4196185,8.71320588 L10.4196185,11.5649909 C10.4196185,12.8253357 9.34315166,13.84706 8.01519065,13.84706 C6.68722964,13.84706 5.61069094,12.8253357 5.61069094,11.5649909 C5.61069094,10.3046461 6.68722964,9.28299003 8.01519065,9.28299003 C8.73360168,9.28299003 9.37800156,9.58237393 9.81854747,10.056478 L9.81854747,8.59993101 C9.28803851,8.30866254 8.67216525,8.1418532 8.01519065,8.1418532 C7.09134483,8.1418532 6.24876755,8.47165286 5.61061908,9.01374912 L5.61061908,8.71313768 L5.61069094,8.71313768 C5.61069094,7.45279286 6.68722964,6.4310686 8.01519065,6.4310686 L8.01519065,6.43031844 L9.81854747,6.43031844 L9.81854747,5.29006816 L8.01504694,5.29006816 L8.01504694,5.28999996 C6.02314136,5.28999996 4.4083333,6.82265455 4.4083333,8.71313768 L4.4083333,11.5649909 C4.4083333,13.4556104 6.02314136,14.9881968 8.01519065,14.9881968 C9.26985907,14.9881968 10.3747088,14.3800179 11.0208333,13.4575199 C11.6670295,14.3800179 12.7718793,14.9881968 14.0265477,14.9881968 L17.032334,14.9883332 L17.032334,13.8481511 L14.0266196,13.8471282 Z" id="Fill-2"></path>
            </g>
        </g>
    </g>
</svg>
